<svg width="203" height="193" viewBox="0 0 203 193" fill="none" xmlns="http://www.w3.org/2000/svg">
<path fill-rule="evenodd" clip-rule="evenodd" d="M80.1837 23.6425C83.4721 25.8035 86.7806 28.0591 90.0764 30.4086C92.2836 28.662 94.477 26.8504 96.7166 25.0006L96.7173 25.0001L96.7174 25L96.7178 24.9997C100.588 21.803 104.596 18.4925 109.051 15.2071C111.718 13.2403 115.474 13.8078 117.441 16.4746C119.408 19.1415 118.84 22.8979 116.174 24.8647C111.871 28.0379 108.428 30.889 104.83 33.8686L104.829 33.8688L104.829 33.8689L104.826 33.8714C103.276 35.155 101.697 36.4624 100.008 37.8296C103.274 40.3919 106.492 43.0494 109.63 45.8018C110.489 46.5559 111.339 47.3153 112.179 48.0791C117.109 45.0714 118.001 44.3853 122.291 41.0873C124.413 39.4558 127.366 37.185 132.051 33.6777C134.704 31.6918 138.464 32.2323 140.45 34.885C142.436 37.5377 141.895 41.2981 139.243 43.284C134.792 46.6163 131.893 48.8442 129.746 50.4944L129.746 50.4948L129.746 50.4949L129.745 50.495C125.988 53.3827 124.534 54.5009 121.087 56.6728C124.38 60.0296 127.511 63.4157 130.496 66.7711C131.245 66.1811 131.998 65.5911 132.757 64.999C138 60.9095 143.895 57.6637 149.663 54.4886L149.663 54.4883L149.664 54.4879L149.664 54.4876L149.665 54.4873C150.733 53.8991 151.797 53.3134 152.852 52.7252C155.746 51.1109 159.4 52.1483 161.014 55.0423C162.629 57.9362 161.591 61.5908 158.697 63.205C157.516 63.864 156.369 64.4967 155.254 65.1119L155.254 65.112L155.253 65.1122C149.48 68.297 144.56 71.011 140.138 74.4605C139.533 74.9326 138.935 75.4008 138.343 75.8663C140.175 78.0452 141.949 80.1856 143.67 82.2694C145.206 84.1307 146.805 86.0748 148.437 88.0944C155.255 84.0789 161.655 79.3226 168.291 74.3177C170.937 72.3224 174.699 72.8496 176.695 75.4952C178.69 78.1408 178.163 81.9031 175.517 83.8984C169.319 88.5728 162.856 93.3966 155.891 97.6189C158.211 100.702 160.52 103.908 162.748 107.219C163.712 106.504 164.688 105.801 165.676 105.111C171.832 100.812 176.827 97.6652 184.391 93.9559C187.366 92.4968 190.96 93.7258 192.42 96.701C193.879 99.6761 192.65 103.271 189.675 104.73C182.798 108.103 178.338 110.905 172.546 114.949C171.511 115.672 170.489 116.413 169.476 117.171C171.551 120.356 173.78 123.959 175.856 127.769C181.881 124.993 186.455 122.293 192.572 118.683L193.64 118.052C196.495 116.369 200.173 117.318 201.857 120.172C203.54 123.026 202.591 126.705 199.737 128.388C199.338 128.623 198.944 128.856 198.555 129.086L198.548 129.09C192.508 132.656 187.486 135.621 180.888 138.663C186.498 155.649 178.326 174.42 161.6 181.696C149.656 186.892 136.398 184.9 126.661 177.625C121.475 181.817 116.565 186.449 111.509 191.275C109.112 193.562 105.314 193.474 103.026 191.077C100.738 188.68 100.827 184.882 103.224 182.594C108.038 177.999 113.033 173.273 118.412 168.867C117.323 167.212 116.361 165.442 115.544 163.563C114.681 161.58 113.609 159.706 112.076 157.324C106.782 161.618 100.9 166.831 96.0631 171.723C93.7335 174.08 89.9345 174.102 87.578 171.772C85.2215 169.442 85.1997 165.643 87.5294 163.287C92.9943 157.759 99.5834 151.961 105.361 147.323C105.172 147.042 104.979 146.755 104.783 146.463C103.019 143.833 101.111 141.206 99.0487 138.506C98.6077 138.781 98.1702 139.057 97.7365 139.333C90.6459 143.856 84.356 147.976 78.1367 153.055C75.5702 155.152 71.7904 154.77 69.6942 152.204C67.598 149.638 67.9793 145.858 70.5457 143.762C77.3564 138.199 84.1669 133.755 91.2835 129.216L91.5233 129.063C90.9233 128.332 90.313 127.591 89.6922 126.839C88.0452 124.844 86.4444 122.917 84.8769 121.054C84.0044 121.608 83.128 122.161 82.2471 122.715C75.8352 126.749 68.6992 130.583 61.0187 133.902C57.9769 135.217 54.4454 133.817 53.1308 130.775C51.8163 127.733 53.2165 124.201 56.2583 122.887C63.3412 119.826 69.9338 116.284 75.8567 112.558C76.2156 112.332 76.5725 112.107 76.9275 111.883C73.8746 108.496 70.8659 105.345 67.7894 102.393C67.1104 102.79 66.4269 103.18 65.7388 103.565C62.3618 106.135 58.8945 108.311 55.5675 110.361C55.1742 110.604 54.7831 110.844 54.3939 111.083L54.3915 111.085L54.3913 111.085L54.3911 111.085L54.3909 111.085C51.31 112.979 48.3534 114.797 45.3798 116.893C42.6715 118.803 38.9281 118.155 37.0187 115.447C35.1094 112.738 35.7571 108.995 38.4654 107.086C41.7687 104.757 45.0587 102.735 48.1102 100.86L48.1175 100.855C48.5066 100.616 48.8917 100.38 49.2726 100.145C52.5348 98.1349 55.5166 96.2527 58.3342 94.1202C54.9813 91.4274 51.4267 88.7828 47.722 86.1933C41.814 90.9647 35.072 95.6054 27.878 99.7823C25.0122 101.446 21.3403 100.472 19.6765 97.6061C18.0126 94.7404 18.9869 91.0685 21.8526 89.4046C27.3355 86.2212 32.5134 82.7601 37.1826 79.2082C36.2244 78.604 35.2602 78.0033 34.2905 77.4064C31.8034 75.8754 29.5751 74.0836 27.6189 72.0879C21.4034 75.2921 15.4102 79.0479 9.2184 82.9819C6.42148 84.759 2.71355 83.9322 0.936494 81.1353C-0.840558 78.3384 -0.0137962 74.6304 2.78312 72.8534C8.53223 69.2006 14.4943 65.4496 20.7873 62.1187C16.1272 51.8697 16.4873 39.5618 22.8332 29.2532C32.7297 13.177 53.5238 7.90867 69.824 17.1103C74.2216 12.3463 79.3467 8.25242 84.3627 4.24559C85.3163 3.4839 86.2659 2.72535 87.2058 1.96594C89.7834 -0.116576 93.5611 0.284729 95.6436 2.86228C97.7261 5.43983 97.3248 9.21757 94.7473 11.3001C93.6961 12.1494 92.6743 12.967 91.6808 13.762L91.6779 13.7643C87.3338 17.2404 83.5315 20.283 80.1837 23.6425Z" fill="#F00078"/>
</svg>
