<svg width="285" height="285" viewBox="0 0 285 285" fill="none" xmlns="http://www.w3.org/2000/svg">
<rect width="285" height="285" rx="45" fill="white"/>
<path fill-rule="evenodd" clip-rule="evenodd" d="M121.184 68.6425C124.472 70.8035 127.781 73.0591 131.076 75.4086C133.284 73.662 135.477 71.8504 137.717 70.0006L137.717 70.0001L137.717 70L137.718 69.9997C141.588 66.803 145.596 63.4925 150.051 60.2071C152.718 58.2403 156.474 58.8078 158.441 61.4746C160.408 64.1415 159.84 67.8979 157.174 69.8647C152.871 73.0379 149.428 75.889 145.83 78.8686L145.829 78.8688L145.829 78.8689L145.826 78.8714C144.276 80.155 142.697 81.4624 141.008 82.8296C144.274 85.3919 147.492 88.0494 150.63 90.8018C151.489 91.5559 152.339 92.3153 153.179 93.0791C158.109 90.0714 159.001 89.3853 163.291 86.0873C165.413 84.4558 168.366 82.185 173.051 78.6777C175.704 76.6918 179.464 77.2323 181.45 79.885C183.436 82.5377 182.895 86.2981 180.243 88.284C175.792 91.6163 172.893 93.8442 170.746 95.4944L170.746 95.4948L170.746 95.4949L170.745 95.495C166.988 98.3827 165.534 99.5009 162.087 101.673C165.38 105.03 168.511 108.416 171.496 111.771C172.245 111.181 172.998 110.591 173.757 109.999C179 105.909 184.895 102.664 190.663 99.4886L190.663 99.4883L190.664 99.4879L190.664 99.4876L190.665 99.4873C191.733 98.8991 192.797 98.3134 193.852 97.7252C196.746 96.1109 200.4 97.1483 202.014 100.042C203.629 102.936 202.591 106.591 199.697 108.205C198.516 108.864 197.369 109.497 196.254 110.112L196.254 110.112L196.253 110.112C190.48 113.297 185.56 116.011 181.138 119.461C180.533 119.933 179.935 120.401 179.343 120.866C181.175 123.045 182.949 125.186 184.67 127.269C186.206 129.131 187.805 131.075 189.437 133.094C196.255 129.079 202.655 124.323 209.291 119.318C211.937 117.322 215.699 117.85 217.695 120.495C219.69 123.141 219.163 126.903 216.517 128.898C210.319 133.573 203.856 138.397 196.891 142.619C199.211 145.702 201.52 148.908 203.748 152.219C204.712 151.504 205.688 150.801 206.676 150.111C212.832 145.812 217.827 142.665 225.391 138.956C228.366 137.497 231.96 138.726 233.42 141.701C234.879 144.676 233.65 148.271 230.675 149.73C223.798 153.103 219.338 155.905 213.546 159.949C212.511 160.672 211.489 161.413 210.476 162.171C212.551 165.356 214.78 168.959 216.856 172.769C222.881 169.993 227.455 167.293 233.572 163.683L234.64 163.052C237.495 161.369 241.173 162.318 242.857 165.172C244.54 168.026 243.591 171.705 240.737 173.388L240.527 173.512L239.662 174.023L239.593 174.063L239.555 174.086L239.548 174.09C233.508 177.656 228.486 180.621 221.888 183.663C227.498 200.649 219.326 219.42 202.6 226.696C190.656 231.892 177.398 229.9 167.661 222.625C162.475 226.817 157.565 231.449 152.509 236.275C150.112 238.562 146.314 238.474 144.026 236.077C141.738 233.68 141.827 229.882 144.224 227.594C149.038 222.999 154.033 218.273 159.412 213.867C158.323 212.212 157.361 210.442 156.544 208.563C155.681 206.58 154.609 204.706 153.076 202.324C147.782 206.618 141.9 211.831 137.063 216.723C134.733 219.08 130.935 219.102 128.578 216.772C126.221 214.442 126.2 210.643 128.529 208.287C133.994 202.759 140.583 196.961 146.361 192.323L146.049 191.86L145.783 191.463C144.019 188.833 142.111 186.206 140.049 183.506C139.608 183.781 139.17 184.057 138.737 184.333C131.646 188.856 125.356 192.976 119.137 198.055C116.57 200.152 112.79 199.77 110.694 197.204C108.598 194.638 108.979 190.858 111.546 188.762C118.356 183.199 125.167 178.755 132.283 174.216L132.523 174.063C131.923 173.332 131.313 172.591 130.692 171.839L157.681 149.554L130.692 171.839C129.045 169.844 127.444 167.917 125.877 166.054C125.004 166.608 124.128 167.161 123.247 167.715C116.835 171.749 109.699 175.583 102.019 178.902C98.9769 180.217 95.4454 178.817 94.1308 175.775C92.8163 172.733 94.2165 169.201 97.2583 167.887C104.341 164.826 110.934 161.284 116.857 157.558C117.216 157.332 117.573 157.107 117.928 156.883C114.875 153.496 111.866 150.345 108.789 147.393C108.11 147.79 107.427 148.18 106.739 148.565C103.362 151.135 99.8945 153.311 96.5675 155.361C96.1742 155.604 95.7831 155.844 95.3939 156.083L95.3915 156.085L95.3913 156.085L95.3911 156.085L95.3909 156.085C92.31 157.979 89.3534 159.797 86.3798 161.893C83.6715 163.803 79.9281 163.155 78.0187 160.447C76.1094 157.738 76.7571 153.995 79.4654 152.086C82.7687 149.757 86.0587 147.735 89.1102 145.86L89.1175 145.855C89.5066 145.616 89.8917 145.38 90.2726 145.145C93.5348 143.135 96.5166 141.253 99.3342 139.12C95.9813 136.427 92.4267 133.783 88.722 131.193C82.814 135.965 76.072 140.605 68.878 144.782C66.0122 146.446 62.3403 145.472 60.6765 142.606C59.0126 139.74 59.9869 136.068 62.8526 134.405C68.3355 131.221 73.5134 127.76 78.1826 124.208C77.2244 123.604 76.2602 123.003 75.2905 122.406C72.8034 120.875 70.5751 119.084 68.6189 117.088C62.4034 120.292 56.4103 124.048 50.2184 127.982C47.4215 129.759 43.7136 128.932 41.9365 126.135C40.1594 123.338 40.9862 119.63 43.7831 117.853C49.5322 114.201 55.4943 110.45 61.7873 107.119C57.1272 96.8697 57.4873 84.5618 63.8332 74.2532C73.7297 58.177 94.5238 52.9087 110.824 62.1103C115.222 57.3463 120.347 53.2524 125.363 49.2456C126.316 48.4839 127.266 47.7253 128.206 46.9659C130.783 44.8834 134.561 45.2847 136.644 47.8623C138.726 50.4398 138.325 54.2176 135.747 56.3001C134.696 57.1494 133.674 57.967 132.681 58.762L132.678 58.7643C128.334 62.2404 124.531 65.283 121.184 68.6425Z" fill="#F00078"/>
</svg>
