<svg width="293" height="293" viewBox="0 0 293 293" fill="none" xmlns="http://www.w3.org/2000/svg">
<g filter="url(#filter0_d_1_43)">
<rect x="4" width="285" height="285" rx="45" fill="white"/>
<rect x="4.25" y="0.25" width="284.5" height="284.5" rx="44.75" stroke="black" stroke-opacity="0.25" stroke-width="0.5"/>
</g>
<path fill-rule="evenodd" clip-rule="evenodd" d="M125.184 68.6425C128.472 70.8035 131.781 73.0591 135.076 75.4086C137.284 73.662 139.477 71.8504 141.717 70.0006L141.717 70.0001L141.717 70L141.718 69.9997C145.588 66.803 149.596 63.4925 154.051 60.2071C156.718 58.2403 160.474 58.8078 162.441 61.4746C164.408 64.1415 163.84 67.8979 161.174 69.8647C156.871 73.0379 153.428 75.889 149.83 78.8686L149.829 78.8688L149.829 78.8689L149.826 78.8714C148.276 80.155 146.697 81.4624 145.008 82.8296C148.274 85.3919 151.492 88.0494 154.63 90.8018C155.489 91.5559 156.339 92.3153 157.179 93.0791C162.109 90.0714 163.001 89.3853 167.291 86.0873C169.413 84.4558 172.366 82.185 177.051 78.6777C179.704 76.6918 183.464 77.2323 185.45 79.885C187.436 82.5377 186.895 86.2981 184.243 88.284C179.792 91.6163 176.893 93.8442 174.746 95.4944L174.746 95.4948L174.746 95.4949L174.745 95.495C170.988 98.3827 169.534 99.5009 166.087 101.673C169.38 105.03 172.511 108.416 175.496 111.771C176.245 111.181 176.998 110.591 177.757 109.999C183 105.909 188.895 102.664 194.663 99.4886L194.663 99.4883L194.664 99.4879L194.664 99.4876L194.665 99.4873C195.733 98.8991 196.797 98.3134 197.852 97.7252C200.746 96.1109 204.4 97.1483 206.014 100.042C207.629 102.936 206.591 106.591 203.697 108.205C202.516 108.864 201.369 109.497 200.254 110.112L200.254 110.112L200.253 110.112C194.48 113.297 189.56 116.011 185.138 119.461C184.533 119.933 183.935 120.401 183.343 120.866C185.175 123.045 186.949 125.186 188.67 127.269C190.207 129.131 191.805 131.075 193.437 133.094C200.255 129.079 206.655 124.323 213.291 119.318C215.937 117.322 219.699 117.85 221.695 120.495C223.69 123.141 223.163 126.903 220.517 128.898C214.319 133.573 207.856 138.397 200.891 142.619C203.211 145.702 205.52 148.908 207.748 152.219C208.712 151.504 209.688 150.801 210.676 150.111C216.832 145.812 221.828 142.665 229.391 138.956C232.366 137.497 235.96 138.726 237.42 141.701C238.879 144.676 237.65 148.271 234.675 149.73C227.798 153.103 223.338 155.905 217.546 159.949C216.511 160.672 215.489 161.413 214.476 162.171C216.551 165.356 218.78 168.959 220.856 172.769C226.881 169.993 231.455 167.293 237.572 163.683L238.64 163.052C241.495 161.369 245.173 162.318 246.857 165.172C248.54 168.026 247.591 171.705 244.737 173.388C244.338 173.623 243.944 173.856 243.555 174.086L243.548 174.09C237.508 177.656 232.486 180.621 225.888 183.663C231.498 200.649 223.326 219.42 206.6 226.696C194.656 231.892 181.398 229.9 171.661 222.625C166.475 226.817 161.565 231.449 156.509 236.275C154.112 238.562 150.314 238.474 148.026 236.077C145.738 233.68 145.827 229.882 148.224 227.594C153.038 222.999 158.033 218.273 163.412 213.867C162.323 212.212 161.361 210.442 160.544 208.563C159.681 206.58 158.609 204.706 157.076 202.324C151.782 206.618 145.9 211.831 141.063 216.723C138.733 219.08 134.935 219.102 132.578 216.772C130.221 214.442 130.2 210.643 132.529 208.287C137.994 202.759 144.583 196.961 150.361 192.323C150.172 192.042 149.979 191.755 149.783 191.463C148.019 188.833 146.111 186.206 144.049 183.506C143.608 183.781 143.17 184.057 142.737 184.333C135.646 188.856 129.356 192.976 123.137 198.055C120.57 200.152 116.79 199.77 114.694 197.204C112.598 194.638 112.979 190.858 115.546 188.762C122.356 183.199 129.167 178.755 136.283 174.216L136.523 174.063C135.923 173.332 135.313 172.591 134.692 171.839C133.045 169.844 131.444 167.917 129.877 166.054C129.004 166.608 128.128 167.161 127.247 167.715C120.835 171.749 113.699 175.583 106.019 178.902C102.977 180.217 99.4454 178.817 98.1308 175.775C96.8163 172.733 98.2165 169.201 101.258 167.887C108.341 164.826 114.934 161.284 120.857 157.558C121.216 157.332 121.573 157.107 121.928 156.883C118.875 153.496 115.866 150.345 112.789 147.393C112.11 147.79 111.427 148.18 110.739 148.565C107.362 151.135 103.895 153.311 100.568 155.361C100.174 155.604 99.7831 155.844 99.3939 156.083L99.3915 156.085L99.3913 156.085L99.3911 156.085L99.3909 156.085C96.31 157.979 93.3534 159.797 90.3798 161.893C87.6715 163.803 83.9281 163.155 82.0187 160.447C80.1094 157.738 80.7571 153.995 83.4654 152.086C86.7687 149.757 90.0587 147.735 93.1102 145.86L93.1175 145.855C93.5066 145.616 93.8917 145.38 94.2726 145.145C97.5348 143.135 100.517 141.253 103.334 139.12C99.9812 136.427 96.4267 133.783 92.722 131.193C86.814 135.965 80.072 140.605 72.878 144.782C70.0122 146.446 66.3403 145.472 64.6765 142.606C63.0126 139.74 63.9869 136.068 66.8526 134.405C72.3355 131.221 77.5134 127.76 82.1826 124.208C81.2244 123.604 80.2602 123.003 79.2905 122.406C76.8034 120.875 74.5751 119.084 72.6189 117.088C66.4034 120.292 60.4102 124.048 54.2184 127.982C51.4215 129.759 47.7135 128.932 45.9365 126.135C44.1594 123.338 44.9862 119.63 47.7831 117.853C53.5322 114.201 59.4943 110.45 65.7873 107.119C61.1272 96.8697 61.4873 84.5618 67.8332 74.2532C77.7297 58.177 98.5238 52.9087 114.824 62.1103C119.222 57.3463 124.347 53.2524 129.363 49.2456C130.316 48.4839 131.266 47.7253 132.206 46.9659C134.783 44.8834 138.561 45.2847 140.644 47.8623C142.726 50.4398 142.325 54.2176 139.747 56.3001C138.696 57.1494 137.674 57.967 136.681 58.762L136.678 58.7643C132.334 62.2404 128.531 65.283 125.184 68.6425Z" fill="#F00078"/>
<defs>
<filter id="filter0_d_1_43" x="0" y="0" width="293" height="293" filterUnits="userSpaceOnUse" color-interpolation-filters="sRGB">
<feFlood flood-opacity="0" result="BackgroundImageFix"/>
<feColorMatrix in="SourceAlpha" type="matrix" values="0 0 0 0 0 0 0 0 0 0 0 0 0 0 0 0 0 0 127 0" result="hardAlpha"/>
<feOffset dy="4"/>
<feGaussianBlur stdDeviation="2"/>
<feComposite in2="hardAlpha" operator="out"/>
<feColorMatrix type="matrix" values="0 0 0 0 0 0 0 0 0 0 0 0 0 0 0 0 0 0 0.25 0"/>
<feBlend mode="normal" in2="BackgroundImageFix" result="effect1_dropShadow_1_43"/>
<feBlend mode="normal" in="SourceGraphic" in2="effect1_dropShadow_1_43" result="shape"/>
</filter>
</defs>
</svg>
